<svg xmlns="http://www.w3.org/2000/svg" xmlns:xlink="http://www.w3.org/1999/xlink" viewBox="0,0,256,256" width="24px" height="24px"><g fill="#56b8ed" fill-rule="nonzero" stroke="none" stroke-width="1" stroke-linecap="butt" stroke-linejoin="miter" stroke-miterlimit="10" stroke-dasharray="" stroke-dashoffset="0" font-family="none" font-weight="none" font-size="none" text-anchor="none" style="mix-blend-mode: normal"><g transform="scale(8.53333,8.53333)"><path d="M9,6c-3.314,0 -6,2.686 -6,6v12c0,1.105 0.895,2 2,2h4h6h10c1.09306,0 2,-0.90694 2,-2v-12c0,-3.30163 -2.69837,-6 -6,-6zM13.46289,8h7.53711c2.22038,0 4,1.77963 4,4v12h-10v-12c0,-1.53928 -0.58438,-2.93791 -1.53711,-4zM19,10c-1.10457,0 -2,0.89543 -2,2c0,1.10457 0.89543,2 2,2v7h2h2v-4h-2v-5c0,-1.10457 -0.89543,-2 -2,-2zM7,12h4c0.552,0 1,0.448 1,1c0,0.552 -0.448,1 -1,1h-4c-0.552,0 -1,-0.448 -1,-1c0,-0.552 0.448,-1 1,-1z"></path></g></g></svg>